<?xml version="1.0" encoding="UTF-8" standalone="no"?>
<!-- Created with Inkscape (http://www.inkscape.org/) -->

<svg
   width="217.98204mm"
   height="42.131489mm"
   viewBox="0 0 217.98204 42.131489"
   version="1.1"
   id="svg5"
   xml:space="preserve"
   xmlns="http://www.w3.org/2000/svg"
   xmlns:svg="http://www.w3.org/2000/svg"><defs
     id="defs2" /><g
     id="layer1"
     transform="translate(24.693037,-126.58335)"><path
       style="fill:#f75fa7;fill-opacity:1;stroke-width:0.264583"
       d="m 182.74105,162.26016 c -4.17184,-0.23404 -7.65363,-0.49419 -7.73732,-0.57812 -0.16869,-0.16919 0.30476,-25.92829 0.47978,-26.10331 0.18217,-0.18217 17.56729,0.31729 17.76024,0.51024 0.0983,0.0984 0.0311,1.6807 -0.14936,3.51633 l -0.32817,3.33752 -0.69083,-0.1482 c -0.37996,-0.0815 -2.61093,-0.48217 -4.95771,-0.89037 l -4.26686,-0.74217 -0.16491,1.57769 c -0.0907,0.86774 -0.1649,1.95889 -0.1649,2.42479 v 0.8471 l 3.89203,0.1839 c 2.14062,0.10114 3.93276,0.22462 3.98253,0.2744 0.0498,0.0498 0.008,1.004 -0.0934,2.12051 l -0.18396,2.03001 -3.46784,-0.16279 c -1.90732,-0.0895 -3.73307,-0.21709 -4.05723,-0.28346 -0.44811,-0.0917 -0.62054,0.0229 -0.71939,0.47821 -0.2369,1.0912 -0.69679,5.56066 -0.5838,5.67365 0.0611,0.0611 2.68571,-0.0329 5.83256,-0.20876 3.14685,-0.17587 5.79154,-0.24977 5.8771,-0.16422 0.14405,0.14405 -0.55023,5.29941 -0.85443,6.34454 -0.0953,0.32737 -0.38149,0.45204 -0.97684,0.42553 -0.46314,-0.0206 -4.2554,-0.22898 -8.42724,-0.46302 z"
       id="path248" /><path
       style="fill:#f75fa7;fill-opacity:1;stroke-width:0.264583"
       d="m 93.736908,162.79122 c -1.409301,-0.36173 -3.581109,-1.69616 -4.491456,-2.75969 -1.191022,-1.39144 -2.055699,-3.29984 -2.781564,-6.1391 -0.510046,-1.99505 -0.609182,-3.07734 -0.617588,-6.74217 -0.0088,-3.85507 0.401444,-9.25405 0.812273,-10.68869 0.135438,-0.47296 0.367279,-0.49318 3.977947,-0.34689 2.108769,0.0855 3.870471,0.19239 3.914894,0.23765 0.04442,0.0453 -0.148134,1.92777 -0.427908,4.18335 -0.6766,5.45489 -0.749633,12.04196 -0.15576,14.04861 0.997027,3.36886 3.711263,3.96357 5.167816,1.13231 0.962188,-1.8703 1.120178,-7.32571 0.45086,-15.56737 -0.212259,-2.61364 -0.361389,-4.77266 -0.331398,-4.79783 0.259881,-0.21812 7.233506,-0.47717 7.373366,-0.27391 0.31872,0.46324 0.61884,6.30323 0.60682,11.80819 -0.0102,4.6709 -0.0922,5.74559 -0.59071,7.74058 -0.31838,1.27415 -0.80685,2.76243 -1.08549,3.30729 -0.85903,1.6798 -2.6067,3.43061 -4.20503,4.2126 -1.30613,0.63903 -1.864213,0.74581 -4.157777,0.79556 -1.457034,0.0316 -3.013716,-0.0361 -3.459295,-0.15049 z"
       id="path246" /><path
       style="fill:#f75fa7;fill-opacity:1;stroke-width:0.264583"
       d="m 64.67636,159.92589 c -0.296752,-5.45312 -0.449226,-6.69021 -0.824572,-6.69021 -0.362111,0 -0.513167,-0.71362 -0.798092,-3.77032 -0.158498,-1.70039 -0.139348,-1.78593 0.399775,-1.78593 0.537687,0 0.558583,-0.0901 0.414322,-1.78594 -0.199599,-2.34635 -0.673867,-9.73249 -0.673867,-10.49464 0,-0.56995 0.145907,-0.61083 3.241146,-0.90802 1.78263,-0.17117 3.509036,-0.30985 3.836458,-0.30818 l 0.595313,0.003 0.0019,4.96093 c 0.0011,2.72852 0.07778,5.76461 0.17055,6.74688 l 0.168672,1.78594 h 2.47528 2.475283 v -6.10645 -6.10644 l 3.418301,0.0872 c 1.880063,0.048 3.481313,0.15053 3.558331,0.22797 0.07701,0.0774 -0.149241,5.55431 -0.502796,12.17083 -0.353555,6.61652 -0.645115,12.53606 -0.647914,13.15452 l -0.0051,1.12448 h -3.042709 -3.042708 v -4.89479 -4.89479 h -1.153697 c -0.634532,0 -1.723829,0.0781 -2.42066,0.17365 l -1.266965,0.17366 0.152336,4.83444 0.152337,4.83444 -1.766573,0.15691 c -0.971613,0.0863 -2.436638,0.21817 -3.255608,0.29305 l -1.489038,0.13614 z"
       id="path244" /><path
       style="fill:#f75fa7;fill-opacity:1;stroke-width:0.264583"
       d="m 157.27509,149.90293 c -0.10525,-7.3628 -0.12062,-13.45766 -0.0341,-13.54413 0.0865,-0.0865 1.88567,-0.20923 3.99821,-0.27278 l 3.84098,-0.11556 -0.1553,1.6873 c -0.37295,4.05192 -1.40655,18.88839 -1.32179,18.97315 0.0514,0.0514 2.00294,-0.4534 4.33678,-1.12174 2.33384,-0.66834 4.30717,-1.21516 4.38518,-1.21516 0.078,0 0.14184,1.65958 0.14184,3.68795 v 3.68796 l -1.12448,0.15547 c -1.21513,0.16801 -13.30989,1.46445 -13.66215,1.46445 -0.11757,0 -0.29989,-6.02411 -0.40513,-13.38691 z"
       id="path242" /><path
       style="fill:#f75fa7;fill-opacity:1;stroke-width:0.264583"
       d="m 119.28559,162.93261 c -4.00193,-1.08067 -7.42274,-4.73623 -8.61145,-9.20242 -0.44738,-1.68085 -0.50272,-6.23523 -0.0999,-8.22055 0.41452,-2.04299 1.47368,-4.74146 2.42442,-6.1768 0.9517,-1.43682 3.48983,-3.41309 4.9174,-3.82886 2.86035,-0.83306 6.46305,-0.51755 9.02716,0.79057 2.11174,1.07733 3.75508,3.37762 4.14211,5.79799 l 0.15687,0.981 -2.45598,1.62648 c -1.35078,0.89456 -2.55274,1.56667 -2.67101,1.49358 -0.11827,-0.0731 -0.21504,-0.34554 -0.21504,-0.60544 0,-0.25989 -0.47868,-1.21313 -1.06372,-2.11831 -1.91505,-2.96296 -4.4617,-3.35766 -6.12817,-0.9498 -2.10179,3.03684 -2.06593,11.01064 0.0617,13.71546 0.2992,0.38037 1.00557,0.81586 1.56971,0.96777 1.53272,0.41272 2.85704,-0.22755 4.75508,-2.29892 l 1.56672,-1.70981 2.72821,2.15584 c 1.50051,1.18571 2.75942,2.24113 2.79757,2.34537 0.14702,0.40161 -2.59103,3.12262 -3.98274,3.95795 -2.578,1.54737 -6.07031,2.04814 -8.91893,1.2789 z"
       id="path240" /><path
       style="fill:#f75fa7;fill-opacity:1;stroke-width:0.264583"
       d="m 145.99994,158.96043 -4.35705,-4.85859 -0.16363,2.94036 c -0.09,1.61719 -0.1793,3.62496 -0.19844,4.4617 l -0.0348,1.52136 h -3.1321 -3.1321 l -0.17519,-9.56827 c -0.0964,-5.26254 -0.17519,-11.55564 -0.17519,-13.98466 v -4.41638 l 1.78594,-0.16867 c 0.98226,-0.0928 2.72636,-0.16952 3.87577,-0.17056 l 2.08984,-0.002 -0.17427,5.22552 c -0.14087,4.22394 -0.11037,5.14614 0.15912,4.81137 2.51942,-3.12971 8.24568,-10.01631 8.28857,-9.96812 0.0311,0.0349 0.94844,1.48119 2.03856,3.2139 l 1.98204,3.15037 -4.71852,4.12567 -4.71852,4.12567 2.96396,2.77485 c 1.63018,1.52617 3.67027,3.44653 4.53353,4.26748 l 1.56957,1.49262 -1.83415,2.93897 c -1.00878,1.61643 -1.89754,2.94052 -1.97501,2.94242 -0.0775,0.002 -2.10154,-2.18291 -4.49792,-4.85513 z"
       id="path238" /><path
       style="fill:#f75fa7;fill-opacity:1;stroke-width:0.264583"
       d="m 46.392884,164.23026 c -3.027527,-0.77238 -6.244395,-2.86728 -7.93095,-5.16483 -2.877851,-3.92042 -4.010139,-9.88942 -2.897645,-15.27533 0.583036,-2.82267 1.267201,-4.51563 2.731093,-6.75809 4.268047,-6.53799 12.254116,-8.22025 18.31548,-3.85815 2.514293,1.80943 3.659174,3.86159 3.664252,6.56807 0.0069,3.69393 -3.208528,7.66129 -6.209314,7.66129 -2.137553,0 -4.098078,-1.79134 -4.100052,-3.74624 -0.0021,-1.99041 0.791798,-2.78751 2.904517,-2.91658 1.026022,-0.0627 1.219978,-0.17042 1.440137,-0.80004 0.660982,-1.89028 -1.337114,-3.49339 -4.363878,-3.50123 -1.460209,-0.004 -1.915182,0.11262 -2.846306,0.72821 -2.825747,1.86815 -4.339217,5.83154 -4.31728,11.30584 0.03716,9.27349 5.02118,13.51813 9.793578,8.34069 1.166681,-1.26569 1.886159,-2.62736 1.886159,-3.5697 0,-0.29571 0.11592,-0.53766 0.257596,-0.53766 0.141677,0 1.746263,1.14763 3.565747,2.55029 l 3.308155,2.55028 -1.074301,1.28313 c -0.590865,0.70573 -1.615144,1.75921 -2.276174,2.34107 -2.961029,2.6064 -7.969181,3.78925 -11.850814,2.79898 z"
       id="path236" /><path
       style="display:inline;fill:#f75fa7;fill-opacity:1;stroke-width:0.264583"
       d="M 4.1919068,168.55262 C 3.2460584,168.4082 1.4601209,167.92399 0.22315672,167.47659 -1.0386571,167.0202 -2.5194586,166.67051 -3.150347,166.67992 c -0.6184636,0.009 -2.7615886,0.0433 -4.7625001,0.0758 -6.0130789,0.0975 -9.3115549,-1.06917 -12.7840869,-4.52162 -2.462951,-2.44871 -3.667179,-4.68794 -3.863719,-7.18448 l -0.132384,-1.68161 1.198709,2.40161 c 1.453136,2.91135 3.922668,5.42402 6.575018,6.68987 2.53249,1.20865 4.322713,1.48785 8.9125508,1.38999 l 1.4274423,-0.0304 -1.3077315,-1.38906 c -2.6561726,-2.82137 -4.4480796,-6.178 -5.4307056,-10.17288 -0.827549,-3.36441 -0.820694,-8.84203 0.015,-11.98598 2.814141,-10.587 11.8210263,-16.14824 20.4673479,-12.63743 5.4338541,2.2064 8.6689121,7.67006 8.6689121,14.64086 0,6.52971 -2.36111,12.84055 -6.4422819,17.21912 l -1.8120731,1.94412 h 0.8282306 c 1.2602448,0 3.9229564,-0.98784 5.5199014,-2.04783 3.529915,-2.34303 6.108748,-6.73219 9.445467,-16.07613 2.084895,-5.83841 2.756037,-6.78282 3.901532,-5.4901 1.017551,1.14832 1.372183,2.97164 1.350847,6.94531 -0.02257,4.20527 -0.386305,6.06981 -1.945738,9.97428 -2.652131,6.64035 -8.160423,11.8586 -14.153177,13.40791 -2.071307,0.5355 -6.1648528,0.73266 -8.3343092,0.40142 z m -0.4652539,-9.10157 c 6.4262501,-5.04488 9.2268201,-15.87579 5.8502366,-22.62518 -0.9116695,-1.82233 -1.9221186,-2.84958 -3.7975488,-3.86071 -0.72204,-0.38929 -2.2654834,-0.65762 -3.4264839,-0.63027 -1.3064025,0.0308 -2.64109205,0.19829 -3.8179376,0.88998 -2.7191865,1.59827 -4.8011875,4.56651 -5.6110684,7.99952 -0.5377376,2.27942 -0.3774257,7.68845 0.293255,9.89462 0.7854082,2.58356 2.1962486,4.92313 3.9493222,6.54907 1.4546104,1.34912 4.0479823,2.96288 4.7764543,2.97221 0.1455208,0.002 0.9482164,-0.5333 1.7837706,-1.18924 z"
       id="path403" /></g></svg>
